<svg id="Search" xmlns="http://www.w3.org/2000/svg" width="25" height="25" viewBox="0 0 25 25">
  <path id="Path_2" data-name="Path 2" d="M3.125,10.938a7.737,7.737,0,0,1,7.813-7.812,7.737,7.737,0,0,1,7.813,7.813,7.737,7.737,0,0,1-7.812,7.813A7.737,7.737,0,0,1,3.125,10.938ZM22.344,24.531a1.547,1.547,0,0,0,2.188-2.187L19.688,17.5a10.7,10.7,0,0,0,2.188-6.563A10.87,10.87,0,0,0,10.938,0,10.87,10.87,0,0,0,0,10.938,10.87,10.87,0,0,0,10.938,21.875,10.7,10.7,0,0,0,17.5,19.688Z" fill="#454545"/>
</svg>
