<svg xmlns="http://www.w3.org/2000/svg" width="98.878" height="78.254" viewBox="0 0 98.878 78.254">
  <g id="_" data-name="&quot;" transform="translate(-1217.208 -4793.298)">
    <path id="Path_1096" data-name="Path 1096" d="M22.683,0a22.652,22.652,0,1,0,18.5,35.68A39.156,39.156,0,0,1,2.09,74.135a2.059,2.059,0,1,0,0,4.119A43.3,43.3,0,0,0,45.336,35.008V22.653A22.677,22.677,0,0,0,22.683,0Z" transform="translate(1262.544 4871.552) rotate(180)" fill="#3bacf2"/>
    <path id="Path_1097" data-name="Path 1097" d="M22.683,0a22.652,22.652,0,1,0,18.5,35.68A39.156,39.156,0,0,1,2.09,74.135a2.059,2.059,0,0,0,0,4.119A43.3,43.3,0,0,0,45.336,35.008V22.653A22.677,22.677,0,0,0,22.683,0Z" transform="translate(1316.086 4871.552) rotate(180)" fill="#3bacf2"/>
  </g>
</svg>
