<svg xmlns="http://www.w3.org/2000/svg" width="69" height="69" viewBox="0 0 69 69">
  <g id="Group_912" data-name="Group 912" transform="translate(-0.058)">
    <g id="Ellipse_6" data-name="Ellipse 6" transform="translate(0.058)" fill="#3bacf2" stroke="#3bacf2" stroke-width="2">
      <circle cx="34.5" cy="34.5" r="34.5" stroke="none"/>
      <circle cx="34.5" cy="34.5" r="33.5" fill="none"/>
    </g>
    <g id="test-tube_1_" data-name="test-tube (1)" transform="translate(22.808 14.104)">
      <g id="c7_test_tube" transform="translate(0)">
        <path id="Path_1142" data-name="Path 1142" d="M28.321,0H7.411A1.468,1.468,0,0,0,5.922,1.442a1.469,1.469,0,0,0,1.489,1.44H8.445l0,30.889a9.26,9.26,0,0,0,9.421,9.091,9.559,9.559,0,0,0,6.666-2.668,8.915,8.915,0,0,0,2.758-6.423l0-30.889h1.033a1.467,1.467,0,0,0,1.491-1.44A1.469,1.469,0,0,0,28.321,0ZM19.693,17.941a2.413,2.413,0,0,1-3.33.005,2.212,2.212,0,0,1,0-3.215,2.415,2.415,0,0,1,3.334,0A2.2,2.2,0,0,1,19.693,17.941Zm-3.882-9.1a1.609,1.609,0,0,1,2.217,0,1.475,1.475,0,0,1,0,2.141,1.61,1.61,0,0,1-2.221,0A1.478,1.478,0,0,1,15.811,8.837Zm4.256,2.318a1.186,1.186,0,0,1,1.635,0,1.089,1.089,0,0,1,0,1.577,1.184,1.184,0,0,1-1.64,0A1.085,1.085,0,0,1,20.067,11.155ZM24.15,22.7,11.588,19.761V2.882H24.15V22.7Z" transform="translate(-5.922)" fill="#fff"/>
      </g>
    </g>
  </g>
</svg>
