<svg xmlns="http://www.w3.org/2000/svg" width="68" height="69" viewBox="0 0 68 69">
  <g id="Group_913" data-name="Group 913" transform="translate(0.476)">
    <g id="Ellipse_7" data-name="Ellipse 7" transform="translate(-0.475)" fill="#3bacf2" stroke="#3bacf2" stroke-width="2">
      <ellipse cx="34" cy="34.5" rx="34" ry="34.5" stroke="none"/>
      <ellipse cx="34" cy="34.5" rx="33" ry="33.5" fill="none"/>
    </g>
    <g id="magnet" transform="translate(9.332 34.862) rotate(-45)">
      <path id="Path_1138" data-name="Path 1138" d="M4.613,7.814,0,12.426,15.375,9.254,10.827,4.706,15.587,0,.065,3.266Zm0,0" transform="translate(21.91 0)" fill="#fff"/>
      <path id="Path_1139" data-name="Path 1139" d="M0,4.66,4.661,0l6.214,6.214L6.214,10.875Zm0,0" transform="translate(24.379 14.028)" fill="#fff"/>
      <path id="Path_1140" data-name="Path 1140" d="M10.875,6.214,6.214,10.875,0,4.661,4.661,0Zm0,0" transform="translate(10.397 0.045)" fill="#fff"/>
      <path id="Path_1141" data-name="Path 1141" d="M24.379,24.857,29.04,20.2l-6.214-6.214-4.661,4.661A5.493,5.493,0,0,1,10.4,10.875l4.66-4.661L8.844,0,4.183,4.661a14.281,14.281,0,0,0,20.2,20.2Zm0,0" transform="translate(0 6.26)" fill="#fff"/>
    </g>
  </g>
</svg>
