<svg xmlns="http://www.w3.org/2000/svg" width="69" height="69" viewBox="0 0 69 69">
  <g id="Group_914" data-name="Group 914" transform="translate(0.038)">
    <g id="Ellipse_8" data-name="Ellipse 8" transform="translate(-0.038)" fill="#3bacf2" stroke="#3bacf2" stroke-width="2">
      <circle cx="34.5" cy="34.5" r="34.5" stroke="none"/>
      <circle cx="34.5" cy="34.5" r="33.5" fill="none"/>
    </g>
    <g id="function" transform="translate(14.963 12.792)">
      <path id="Path_1143" data-name="Path 1143" d="M38.5,18.8V14.768a.671.671,0,0,0-.671-.671h-4.7V8.727a3.258,3.258,0,0,1,3.185-3.391,3.552,3.552,0,0,1,3.528,3.391.671.671,0,0,0,.671.671h4.028a.671.671,0,0,0,.671-.671A8.932,8.932,0,0,0,36.314,0a8.652,8.652,0,0,0-8.555,8.727V14.1h-4.7a.671.671,0,0,0-.671.671V18.8a.671.671,0,0,0,.671.671h4.7V31.55a3.356,3.356,0,1,1-6.713,0,.671.671,0,0,0-.671-.671H16.347a.671.671,0,0,0-.671.671,8.727,8.727,0,0,0,17.453,0V19.467h4.7A.671.671,0,0,0,38.5,18.8Z" transform="translate(-15.676 0)" fill="#fff"/>
      <path id="Path_1144" data-name="Path 1144" d="M151.445,163.432l2.263-2.263a2.607,2.607,0,1,0-3.687-3.686l-2.263,2.262-2.263-2.262a2.607,2.607,0,0,0-3.687,3.686l2.263,2.263-2.263,2.263a2.607,2.607,0,0,0,3.687,3.686l2.263-2.262,2.263,2.262a2.607,2.607,0,0,0,3.687-3.686Z" transform="translate(-119.565 -129.868)" fill="#fff"/>
    </g>
  </g>
</svg>
