<svg xmlns="http://www.w3.org/2000/svg" width="69" height="68" viewBox="0 0 69 68">
  <g id="Group_909" data-name="Group 909" transform="translate(-0.058 0.25)">
    <g id="Ellipse_6" data-name="Ellipse 6" transform="translate(0.058 -0.25)" fill="#fff" stroke="#3bacf2" stroke-width="3">
      <ellipse cx="34.5" cy="34" rx="34.5" ry="34" stroke="none"/>
      <ellipse cx="34.5" cy="34" rx="33" ry="32.5" fill="none"/>
    </g>
    <g id="book" transform="translate(16.647 23.771)">
      <path id="Path_1145" data-name="Path 1145" d="M5.047,9.239l6.082,2.045c.5.219,2.879,1.089,7.1.044,5.327-1.322,16.86-3.61,16.976-3.634l-.429-2.167-.077.015L23.7,3.992a15.776,15.776,0,0,0-4.359.113L4.649,6.955a4.306,4.306,0,0,0-2.986,7.614,4.293,4.293,0,0,0-.022,6.773A4.314,4.314,0,0,0,3,28.837L13.6,32.225a4.741,4.741,0,0,0,2.13.089l18.6-4.261s-.111-.482-.247-1.076a1.1,1.1,0,0,0-1.324-.83L15.825,30.024a4.767,4.767,0,0,1-2.13-.089l-10.016-3.2a2.106,2.106,0,0,1-1.366-2.647,2.116,2.116,0,0,1,2.649-1.367c0-.01,6.129,1.947,8.638,2.746a4.741,4.741,0,0,0,2.13.089l18.6-4.26s-.111-.483-.247-1.077a1.1,1.1,0,0,0-1.324-.83L15.826,23.265a4.792,4.792,0,0,1-2.13-.089l-10.017-3.2a2.106,2.106,0,0,1-1.366-2.647,2.115,2.115,0,0,1,2.649-1.367s6.211,1.982,8.74,2.789a4.737,4.737,0,0,0,2.13.089l18.6-4.261s-.111-.481-.247-1.077a1.105,1.105,0,0,0-1.324-.829L15.927,16.546a4.742,4.742,0,0,1-2.13-.089L3.78,13.255A2.106,2.106,0,0,1,5.047,9.239Z" transform="translate(0 -3.891)" fill="#3bacf2"/>
    </g>
  </g>
</svg>
