<svg xmlns="http://www.w3.org/2000/svg" width="68" height="68" viewBox="0 0 68 68">
  <g id="Group_910" data-name="Group 910" transform="translate(0.476 0.25)">
    <g id="Ellipse_7" data-name="Ellipse 7" transform="translate(-0.475 -0.25)" fill="#fff" stroke="#3bacf2" stroke-width="3">
      <circle cx="34" cy="34" r="34" stroke="none"/>
      <circle cx="34" cy="34" r="32.5" fill="none"/>
    </g>
    <g id="refresh" transform="translate(17.458 15.04)">
      <g id="Group_922" data-name="Group 922" transform="translate(0 0)">
        <path id="Path_1147" data-name="Path 1147" d="M61.43,12.155a1.1,1.1,0,0,0-1.59-.3l-3.563,2.673a1.1,1.1,0,0,0-.287,1.435,9.562,9.562,0,0,1,1.363,4.9,9.883,9.883,0,1,1-19.764,0,9.9,9.9,0,0,1,8.784-9.821v3.233a1.1,1.1,0,0,0,1.756.878l8.784-6.588a1.1,1.1,0,0,0,0-1.756L48.128.221a1.1,1.1,0,0,0-1.756.878V4.43A16.511,16.511,0,1,0,61.43,12.155Z" transform="translate(-31 0)" fill="#3bacf2"/>
      </g>
    </g>
  </g>
</svg>
