<svg xmlns="http://www.w3.org/2000/svg" width="38" height="37" viewBox="0 0 38 37">
  <g id="Group_910" data-name="Group 910" transform="translate(0.343 -0.484)">
    <g id="Ellipse_7" data-name="Ellipse 7" transform="translate(-0.343 0.484)" fill="#fff" stroke="#3bacf2" stroke-width="3">
      <ellipse cx="19" cy="18.5" rx="19" ry="18.5" stroke="none"/>
      <ellipse cx="19" cy="18.5" rx="17.5" ry="17" fill="none"/>
    </g>
    <g id="refresh" transform="translate(9.992 8.476)">
      <g id="Group_922" data-name="Group 922" transform="translate(0 0)">
        <path id="Path_1147" data-name="Path 1147" d="M47.568,6.618a.6.6,0,0,0-.866-.161l-1.94,1.455a.6.6,0,0,0-.156.781,5.206,5.206,0,0,1,.742,2.666,5.381,5.381,0,1,1-10.761,0A5.388,5.388,0,0,1,39.37,6.012v1.76a.6.6,0,0,0,.956.478l4.783-3.587a.6.6,0,0,0,0-.956L40.326.12A.6.6,0,0,0,39.37.6V2.412a8.99,8.99,0,1,0,8.2,4.206Z" transform="translate(-31 0)" fill="#3bacf2"/>
      </g>
    </g>
  </g>
</svg>
